<svg xmlns="http://www.w3.org/2000/svg" viewBox="0 0 584 584" role="img" aria-label="Just Blocks gameplay">
<rect width="584" height="584" rx="28" fill="#EBE4D6"/><rect x="40" y="40" width="56" height="56" rx="11" fill="#FBF8F1"/><rect x="104" y="40" width="56" height="56" rx="11" fill="#FBF8F1"/><rect x="168" y="40" width="56" height="56" rx="11" fill="#FBF8F1"/><rect x="232" y="40" width="56" height="56" rx="11" fill="#FBF8F1"/><rect x="296" y="40" width="56" height="56" rx="11" fill="#FBF8F1"/><rect x="360" y="40" width="56" height="56" rx="11" fill="#C2693E"/><rect x="360" y="87" width="56" height="9" rx="4" fill="#000" opacity="0.12"/><rect x="424" y="40" width="56" height="56" rx="11" fill="#C2693E"/><rect x="424" y="87" width="56" height="9" rx="4" fill="#000" opacity="0.12"/><rect x="488" y="40" width="56" height="56" rx="11" fill="#FBF8F1"/><rect x="40" y="104" width="56" height="56" rx="11" fill="#FBF8F1"/><rect x="104" y="104" width="56" height="56" rx="11" fill="#C2693E"/><rect x="104" y="151" width="56" height="9" rx="4" fill="#000" opacity="0.12"/><rect x="168" y="104" width="56" height="56" rx="11" fill="#FBF8F1"/><rect x="232" y="104" width="56" height="56" rx="11" fill="#FBF8F1"/><rect x="296" y="104" width="56" height="56" rx="11" fill="#FBF8F1"/><rect x="360" y="104" width="56" height="56" rx="11" fill="#FBF8F1"/><rect x="424" y="104" width="56" height="56" rx="11" fill="#C2693E"/><rect x="424" y="151" width="56" height="9" rx="4" fill="#000" opacity="0.12"/><rect x="488" y="104" width="56" height="56" rx="11" fill="#FBF8F1"/><rect x="40" y="168" width="56" height="56" rx="11" fill="#FBF8F1"/><rect x="104" y="168" width="56" height="56" rx="11" fill="#C2693E"/><rect x="104" y="215" width="56" height="9" rx="4" fill="#000" opacity="0.12"/><rect x="168" y="168" width="56" height="56" rx="11" fill="#C2693E"/><rect x="168" y="215" width="56" height="9" rx="4" fill="#000" opacity="0.12"/><rect x="232" y="168" width="56" height="56" rx="11" fill="#FBF8F1"/><rect x="296" y="168" width="56" height="56" rx="11" fill="#FBF8F1"/><rect x="360" y="168" width="56" height="56" rx="11" fill="#FBF8F1"/><rect x="424" y="168" width="56" height="56" rx="11" fill="#FBF8F1"/><rect x="488" y="168" width="56" height="56" rx="11" fill="#FBF8F1"/><rect x="40" y="232" width="56" height="56" rx="11" fill="#FBF8F1"/><rect x="104" y="232" width="56" height="56" rx="11" fill="#FBF8F1"/><rect x="168" y="232" width="56" height="56" rx="11" fill="#FBF8F1"/><rect x="232" y="232" width="56" height="56" rx="11" fill="#5B7A99"/><rect x="232" y="279" width="56" height="9" rx="4" fill="#000" opacity="0.12"/><rect x="296" y="232" width="56" height="56" rx="11" fill="#5B7A99"/><rect x="296" y="279" width="56" height="9" rx="4" fill="#000" opacity="0.12"/><rect x="360" y="232" width="56" height="56" rx="11" fill="#FBF8F1"/><rect x="424" y="232" width="56" height="56" rx="11" fill="#FBF8F1"/><rect x="488" y="232" width="56" height="56" rx="11" fill="#FBF8F1"/><rect x="40" y="296" width="56" height="56" rx="11" fill="#FBF8F1"/><rect x="104" y="296" width="56" height="56" rx="11" fill="#FBF8F1"/><rect x="168" y="296" width="56" height="56" rx="11" fill="#FBF8F1"/><rect x="232" y="296" width="56" height="56" rx="11" fill="#5B7A99"/><rect x="232" y="343" width="56" height="9" rx="4" fill="#000" opacity="0.12"/><rect x="296" y="296" width="56" height="56" rx="11" fill="#5B7A99"/><rect x="296" y="343" width="56" height="9" rx="4" fill="#000" opacity="0.12"/><rect x="360" y="296" width="56" height="56" rx="11" fill="#FBF8F1"/><rect x="424" y="296" width="56" height="56" rx="11" fill="#FBF8F1"/><rect x="488" y="296" width="56" height="56" rx="11" fill="#5B7A99"/><rect x="488" y="343" width="56" height="9" rx="4" fill="#000" opacity="0.12"/><rect x="40" y="360" width="56" height="56" rx="11" fill="#FBF8F1"/><rect x="104" y="360" width="56" height="56" rx="11" fill="#FBF8F1"/><rect x="168" y="360" width="56" height="56" rx="11" fill="#FBF8F1"/><rect x="232" y="360" width="56" height="56" rx="11" fill="#FBF8F1"/><rect x="296" y="360" width="56" height="56" rx="11" fill="#FBF8F1"/><rect x="360" y="360" width="56" height="56" rx="11" fill="#FBF8F1"/><rect x="424" y="360" width="56" height="56" rx="11" fill="#6E8B6A"/><rect x="424" y="407" width="56" height="9" rx="4" fill="#000" opacity="0.12"/><rect x="488" y="360" width="56" height="56" rx="11" fill="#5B7A99"/><rect x="488" y="407" width="56" height="9" rx="4" fill="#000" opacity="0.12"/><rect x="40" y="424" width="56" height="56" rx="11" fill="#C99A3F"/><rect x="40" y="471" width="56" height="9" rx="4" fill="#000" opacity="0.12"/><rect x="104" y="424" width="56" height="56" rx="11" fill="#C99A3F"/><rect x="104" y="471" width="56" height="9" rx="4" fill="#000" opacity="0.12"/><rect x="168" y="424" width="56" height="56" rx="11" fill="#C99A3F"/><rect x="168" y="471" width="56" height="9" rx="4" fill="#000" opacity="0.12"/><rect x="232" y="424" width="56" height="56" rx="11" fill="#C99A3F"/><rect x="232" y="471" width="56" height="9" rx="4" fill="#000" opacity="0.12"/><rect x="296" y="424" width="56" height="56" rx="11" fill="#FBF8F1"/><rect x="360" y="424" width="56" height="56" rx="11" fill="#FBF8F1"/><rect x="424" y="424" width="56" height="56" rx="11" fill="#6E8B6A"/><rect x="424" y="471" width="56" height="9" rx="4" fill="#000" opacity="0.12"/><rect x="488" y="424" width="56" height="56" rx="11" fill="#FBF8F1"/><rect x="40" y="488" width="56" height="56" rx="11" fill="#FBF8F1"/><rect x="104" y="488" width="56" height="56" rx="11" fill="#FBF8F1"/><rect x="168" y="488" width="56" height="56" rx="11" fill="#FBF8F1"/><rect x="232" y="488" width="56" height="56" rx="11" fill="#FBF8F1"/><rect x="296" y="488" width="56" height="56" rx="11" fill="#FBF8F1"/><rect x="360" y="488" width="56" height="56" rx="11" fill="#6E8B6A"/><rect x="360" y="535" width="56" height="9" rx="4" fill="#000" opacity="0.12"/><rect x="424" y="488" width="56" height="56" rx="11" fill="#6E8B6A"/><rect x="424" y="535" width="56" height="9" rx="4" fill="#000" opacity="0.12"/><rect x="488" y="488" width="56" height="56" rx="11" fill="#FBF8F1"/></svg>